<?xml version="1.0" standalone="no"?>
<!DOCTYPE svg PUBLIC "-//W3C//DTD SVG 20010904//EN" "http://www.w3.org/TR/2001/REC-SVG-20010904/DTD/svg10.dtd">
<svg xmlns="http://www.w3.org/2000/svg" version="1.0" width="602.000000pt" height="602.000000pt" viewBox="0 0 602.000000 602.000000" preserveAspectRatio="xMidYMid meet">
<metadata>
Created by potrace 1.16, written by Peter Selinger 2001-2019
<meta name="Producer" content="Online-Convert"/></metadata>
<g transform="translate(0.000000,602.000000) scale(0.100000,-0.100000)" fill="#000000" stroke="none">
<path d="M2475 5860 c-210 -24 -465 -159 -650 -345 -156 -156 -227 -275 -300 -505 -40 -124 -41 -126 -110 -196 -52 -52 -94 -83 -163 -119 -150 -79 -212 -162 -220 -296 -4 -62 -1 -84 17 -124 11 -26 21 -51 21 -55 0 -4 -19 -13 -42 -19 -79 -24 -199 -126 -234 -199 -40 -83 -22 -212 43 -315 14 -22 23 -40 21 -41 -147 -88 -218 -200 -218 -345 0 -90 24 -151 88 -222 51 -56 53 -61 43 -91 -16 -46 -13 -167 5 -221 32 -96 155 -196 241 -198 35 0 42 -5 80 -58 53 -75 122 -112 221 -118 60 -4 72 -1 116 25 l49 29 50 -34 c27 -18 57 -33 66 -33 32 0 30 -12 -11 -72 -85 -126 -170 -334 -221 -543 -40 -162 -75 -429 -58 -439 5 -3 24 17 41 45 40 62 81 94 154 119 100 36 204 23 271 -33 l36 -29 -29 -18 c-43 -27 -62 -59 -62 -108 0 -35 6 -49 29 -73 16 -16 43 -32 60 -35 28 -6 31 -10 31 -43 0 -50 -44 -136 -86 -167 -29 -23 -34 -32 -34 -69 0 -49 6 -55 78 -80 l52 -19 0 -190 c0 -105 -3 -200 -6 -212 -4 -15 -21 -25 -62 -38 -31 -9 -75 -27 -97 -39 -33 -18 -40 -28 -40 -52 0 -51 31 -57 269 -62 1419 -24 2386 -22 2457 6 85 32 1 111 -151 143 l-60 12 2 199 3 199 55 23 c54 23 55 24 58 69 3 41 0 46 -26 60 -62 32 -118 116 -129 191 -5 39 -4 45 10 39 26 -10 84 15 112 47 43 52 22 156 -35 174 -30 9 -21 25 34 63 44 29 55 32 127 32 124 0 194 -33 272 -130 l28 -35 -5 120 c-12 255 -117 613 -245 835 l-48 85 47 16 c26 10 59 25 74 34 25 16 28 16 63 -1 97 -46 220 -22 309 59 30 27 54 55 54 62 0 7 17 16 37 20 124 23 217 90 264 190 24 50 29 73 29 137 0 42 -4 88 -9 101 -8 21 -4 30 30 63 78 76 124 202 109 301 -19 126 -64 200 -171 279 -45 33 -49 38 -35 53 27 29 67 128 73 179 14 122 -71 249 -209 312 -40 18 -74 34 -75 34 -1 1 7 33 18 71 23 85 24 130 3 203 -22 79 -106 161 -229 224 -143 74 -179 121 -245 323 -57 171 -81 223 -148 325 -102 153 -255 295 -423 390 -85 48 -112 60 -229 103 l-85 32 -540 1 c-297 1 -571 -2 -610 -6z m590 -284 c47 -36 60 -40 318 -91 202 -40 256 -63 362 -155 69 -60 110 -84 190 -110 81 -27 127 -67 145 -125 6 -22 15 -116 20 -210 10 -208 35 -291 126 -416 44 -61 74 -126 74 -165 0 -18 -12 -63 -26 -100 -37 -98 -30 -160 31 -277 l46 -88 -26 -87 c-35 -118 -42 -204 -20 -262 29 -76 28 -101 -5 -221 -83 -299 -159 -456 -295 -612 -77 -88 -142 -329 -180 -661 -5 -47 -13 -66 -35 -88 -16 -15 -36 -28 -45 -28 -8 0 -110 32 -226 71 -276 92 -357 99 -504 43 -13 -5 -15 9 -15 100 l0 106 -37 -1 c-24 -1 -29 -3 -15 -6 21 -4 22 -8 22 -114 l0 -109 -22 14 c-13 8 -50 22 -83 32 -110 31 -227 11 -495 -85 -128 -46 -191 -55 -216 -29 -12 12 -20 54 -30 160 -23 250 -43 369 -86 497 -17 53 -34 79 -100 149 -118 128 -150 192 -208 419 -16 62 -41 141 -55 176 -14 35 -25 70 -25 77 0 7 12 43 27 79 36 89 37 208 4 296 -35 95 -35 97 0 140 77 97 96 191 63 319 -27 104 -17 150 55 260 91 138 109 187 120 343 11 144 23 187 72 269 45 75 95 118 160 139 88 29 144 61 215 125 58 51 82 64 158 90 50 16 125 34 166 41 156 22 247 56 294 108 25 27 28 27 81 -13z m-1185 -4191 c78 -40 46 -170 -42 -167 -86 2 -124 83 -69 146 31 36 68 43 111 21z m2327 -30 c29 -20 46 -75 34 -106 -13 -35 -34 -50 -80 -56 -35 -5 -44 -2 -71 25 -18 18 -30 41 -30 57 0 31 24 81 42 88 27 11 84 6 105 -8z"/>
<path d="M2510 4685 c-93 -19 -154 -41 -245 -88 -83 -44 -205 -151 -205 -181 0 -9 2 -16 4 -16 1 0 46 20 99 45 153 72 343 115 504 115 80 0 103 13 103 58 0 15 -9 38 -20 52 -17 22 -27 25 -97 27 -43 1 -107 -4 -143 -12z"/>
<path d="M3263 4678 c-25 -27 -31 -86 -11 -106 7 -7 42 -12 88 -12 157 0 336 -44 513 -127 59 -28 80 -34 89 -25 22 22 -103 131 -217 189 -126 64 -224 93 -345 100 -91 5 -96 4 -117 -19z"/>
<path d="M2650 3962 c-16 -17 -30 -37 -30 -46 0 -52 55 -94 105 -82 29 7 60 65 50 95 -8 26 -35 48 -67 56 -22 6 -33 1 -58 -23z"/>
<path d="M3241 3944 c-12 -15 -21 -31 -21 -36 0 -19 30 -66 45 -72 83 -31 146 52 88 117 -26 28 -87 23 -112 -9z"/>
<path d="M2856 3538 c-14 -56 -49 -153 -77 -216 -56 -126 -57 -151 -11 -195 44 -42 99 -60 183 -60 63 -1 86 4 132 27 64 31 114 83 98 99 -8 8 -22 0 -49 -25 -20 -21 -54 -44 -74 -53 -48 -20 -152 -19 -211 1 -84 28 -96 76 -47 174 45 89 79 199 86 279 4 39 5 71 2 71 -3 0 -17 -46 -32 -102z"/>
<path d="M2595 2850 c-10 -16 7 -26 89 -51 176 -53 301 -62 476 -34 163 26 215 40 215 55 0 18 -4 18 -130 -11 -81 -18 -130 -23 -260 -23 -151 0 -165 2 -255 31 -52 16 -102 33 -111 37 -10 4 -20 2 -24 -4z"/>
</g>
</svg>
